# xmcd
# 
# Track frame offsets:
#     150
#     18205
#     34342
#     56582
#     70907
#     87882
#     105937
#     118577
#     133070
#     147032
#     158527
#     177417
#     194345
#     209947
#     228642
# 
# Disc length: 3222
# 
# Revision: 3
# Processed by: cddbd v1.5.2PL0 Copyright (c) Steve Scherf et al.
# Submitted via: fre:ac v1.0.17
# 
DISCID=d20c940f
DTITLE=Vince Gill - I Still Believe In You
DYEAR=1992
DGENRE=Country
TTITLE0=I Still Believe In You
TTITLE1=Never Alone
TTITLE2=Nothing Like A Woman
TTITLE3=What's A Man To Do
TTITLE4=Don't Let Our Love Start Slippin' Away
TTITLE5=Never Knew Lonely
TTITLE6=Say Hello
TTITLE7=One More Last Change
TTITLE8=Under These Conditions
TTITLE9=Pretty Words
TTITLE10=Love Never Broke Anyone's Heart
TTITLE11=Tryin' To Get Over You
TTITLE12=We Could Have Been
TTITLE13=No Future In The Past
TTITLE14=Liza Jane
EXTD=
EXTT0=
EXTT1=
EXTT2=
EXTT3=
EXTT4=
EXTT5=
EXTT6=
EXTT7=
EXTT8=
EXTT9=
EXTT10=
EXTT11=
EXTT12=
EXTT13=
EXTT14=
PLAYORDER=
